<svg width="130" height="124" viewBox="0 0 130 124" fill="none" xmlns="http://www.w3.org/2000/svg">
<path d="M123.697 34.2384C122.037 32.5777 120.066 31.2603 117.897 30.3615C115.727 29.4626 113.402 29 111.054 29C108.706 29 106.381 29.4626 104.212 30.3615C102.043 31.2603 100.072 32.5777 98.4117 34.2384L94.9667 37.6834L91.5217 34.2384C88.1687 30.8854 83.6211 29.0017 78.8792 29.0017C74.1373 29.0017 69.5897 30.8854 66.2367 34.2384C62.8837 37.5914 61 42.1391 61 46.8809C61 51.6228 62.8837 56.1704 66.2367 59.5234L69.6817 62.9684L94.9667 88.2534L120.252 62.9684L123.697 59.5234C125.357 57.8635 126.675 55.8926 127.574 53.7233C128.472 51.5541 128.935 49.229 128.935 46.8809C128.935 44.5328 128.472 42.2078 127.574 40.0385C126.675 37.8693 125.357 35.8984 123.697 34.2384Z" fill="#009C3E" stroke="black" stroke-linecap="round" stroke-linejoin="round"/>
<g filter="url(#filter0_d_7_116)">
<path d="M74.4072 33.1187C72.151 32.4682 69.7887 32.2686 67.4554 32.5312C65.122 32.7939 62.8633 33.5137 60.8082 34.6496C58.7532 35.7854 56.942 37.315 55.4782 39.151C54.0145 40.987 52.9268 43.0934 52.2773 45.3499L50.9287 50.0315L46.2471 48.6828C41.6905 47.3702 36.7991 47.9214 32.649 50.2152C28.4988 52.509 25.4299 56.3574 24.1172 60.914C22.8046 65.4706 23.3558 70.3619 25.6496 74.5121C27.9434 78.6622 31.7919 81.7312 36.3484 83.0438L41.03 84.3925L75.391 94.2912L85.2897 59.9302L86.6383 55.2486C87.2888 52.9924 87.4885 50.6302 87.2258 48.2968C86.9632 45.9635 86.2433 43.7047 85.1075 41.6497C83.9717 39.5946 82.442 37.7834 80.606 36.3197C78.77 34.8559 76.6636 33.7682 74.4072 33.1187Z" fill="#A2B000"/>
<path d="M74.4072 33.1187C72.151 32.4682 69.7887 32.2686 67.4554 32.5312C65.122 32.7939 62.8633 33.5137 60.8082 34.6496C58.7532 35.7854 56.942 37.315 55.4782 39.151C54.0145 40.987 52.9268 43.0934 52.2773 45.3499L50.9287 50.0315L46.2471 48.6828C41.6905 47.3702 36.7991 47.9214 32.649 50.2152C28.4988 52.509 25.4299 56.3574 24.1172 60.914C22.8046 65.4706 23.3558 70.3619 25.6496 74.5121C27.9434 78.6622 31.7919 81.7312 36.3484 83.0438L41.03 84.3925L75.391 94.2912L85.2897 59.9302L86.6383 55.2486C87.2888 52.9924 87.4885 50.6302 87.2258 48.2968C86.9632 45.9635 86.2433 43.7047 85.1075 41.6497C83.9717 39.5946 82.442 37.7834 80.606 36.3197C78.77 34.8559 76.6636 33.7682 74.4072 33.1187Z" stroke="black" stroke-linecap="round" stroke-linejoin="round"/>
</g>
<defs>
<filter id="filter0_d_7_116" x="0.918503" y="0.919067" width="124.92" height="122.872" filterUnits="userSpaceOnUse" color-interpolation-filters="sRGB">
<feFlood flood-opacity="0" result="BackgroundImageFix"/>
<feColorMatrix in="SourceAlpha" type="matrix" values="0 0 0 0 0 0 0 0 0 0 0 0 0 0 0 0 0 0 127 0" result="hardAlpha"/>
<feOffset dx="8" dy="-1"/>
<feGaussianBlur stdDeviation="15"/>
<feComposite in2="hardAlpha" operator="out"/>
<feColorMatrix type="matrix" values="0 0 0 0 0 0 0 0 0 0 0 0 0 0 0 0 0 0 0.32 0"/>
<feBlend mode="normal" in2="BackgroundImageFix" result="effect1_dropShadow_7_116"/>
<feBlend mode="normal" in="SourceGraphic" in2="effect1_dropShadow_7_116" result="shape"/>
</filter>
</defs>
</svg>
